<?xml version="1.0" standalone="no"?>
<!DOCTYPE svg PUBLIC "-//W3C//DTD SVG 20010904//EN"
 "http://www.w3.org/TR/2001/REC-SVG-20010904/DTD/svg10.dtd">
<svg version="1.0" xmlns="http://www.w3.org/2000/svg"
 width="360.000000pt" height="360.000000pt" viewBox="0 0 360.000000 360.000000"
 preserveAspectRatio="xMidYMid meet">
<metadata>
Created by potrace 1.11, written by Peter Selinger 2001-2013
</metadata>
<g transform="translate(0.000000,360.000000) scale(0.100000,-0.100000)"
fill="#000000" stroke="none">
<path d="M2363 2776 c-5 -7 -8 -1690 -4 -1778 1 -16 13 -18 99 -18 l99 0 0
271 0 271 39 37 c22 20 51 46 65 59 l26 23 156 -183 c85 -101 163 -193 174
-204 10 -12 50 -59 88 -104 39 -46 88 -103 110 -127 l40 -44 129 3 129 3 -78
90 c-43 50 -104 119 -135 155 -31 36 -78 90 -105 120 -26 30 -59 69 -74 85
-14 17 -53 62 -86 100 -33 39 -62 72 -65 75 -3 3 -35 39 -72 81 l-67 75 67 60
c37 33 119 107 182 164 162 145 278 250 319 287 l36 32 -30 1 c-44 2 -187 2
-210 1 -11 -1 -40 -20 -65 -44 -25 -23 -86 -78 -135 -121 -50 -44 -108 -96
-130 -116 -136 -124 -177 -161 -233 -210 -35 -30 -67 -56 -70 -58 -4 -1 -7
229 -7 510 l0 513 -93 0 c-52 1 -96 -4 -99 -9z"/>
<path d="M107 2542 c-2 -4 -3 -45 -3 -92 l1 -85 377 -230 c208 -126 378 -232
378 -235 0 -3 -159 -100 -353 -215 -193 -115 -363 -217 -377 -226 -24 -16 -25
-22 -25 -102 0 -47 3 -88 6 -91 4 -5 928 541 948 560 2 2 4 37 4 79 0 42 -2
77 -4 79 -2 2 -71 44 -154 93 -82 50 -285 170 -450 269 -348 207 -344 205
-348 196z"/>
<path d="M1668 2328 c-137 -28 -225 -75 -324 -173 -62 -62 -90 -98 -117 -155
-70 -147 -90 -275 -72 -464 21 -226 150 -420 341 -515 108 -53 202 -74 339
-74 133 0 214 14 328 55 50 18 58 24 54 42 -3 12 -10 48 -18 82 l-12 60 -81
-23 c-159 -46 -327 -51 -436 -12 -125 44 -236 167 -281 309 -27 85 -33 226
-14 325 38 200 174 342 360 376 82 15 210 5 329 -25 55 -14 100 -25 101 -23 5
6 45 142 45 153 0 12 -100 47 -165 59 -144 25 -262 26 -377 3z"/>
</g>
</svg>
