<?xml version="1.0" standalone="no"?>
<!DOCTYPE svg PUBLIC "-//W3C//DTD SVG 20010904//EN"
 "http://www.w3.org/TR/2001/REC-SVG-20010904/DTD/svg10.dtd">
<svg version="1.0" xmlns="http://www.w3.org/2000/svg"
 width="500.000000pt" height="500.000000pt" viewBox="0 0 500.000000 500.000000"
 preserveAspectRatio="xMidYMid meet">
<metadata>
Created by potrace 1.11, written by Peter Selinger 2001-2013
</metadata>
<g transform="translate(0.000000,500.000000) scale(0.100000,-0.100000)"
fill="#000000" stroke="none">
<path d="M1589 4236 c-2 -2 -38 -6 -79 -10 -175 -14 -376 -73 -547 -160 -272
-136 -524 -394 -664 -676 -83 -169 -158 -403 -174 -546 -4 -32 -9 -61 -10 -64
-2 -4 -7 -51 -11 -105 -72 -960 413 -1696 1236 -1875 246 -54 589 -47 830 15
73 19 218 73 238 88 17 13 23 5 24 -32 l1 -31 106 -1 c58 0 229 -1 379 -2
l272 -2 -1 415 -1 414 122 118 c67 65 126 118 130 118 5 0 26 -28 46 -62 160
-265 599 -976 610 -988 13 -13 72 -15 410 -15 263 0 393 3 390 10 -3 10 -721
1094 -846 1280 -86 127 -150 226 -150 232 0 2 42 46 94 96 225 220 683 667
743 725 36 34 59 62 51 63 -7 0 -184 1 -394 1 l-381 1 -49 -53 c-79 -85 -147
-156 -360 -377 -111 -114 -249 -257 -308 -318 l-105 -110 -1 105 c-1 58 -1
457 -1 888 l-1 782 -379 0 c-208 0 -378 -3 -378 -7 1 -5 1 -20 0 -36 l-1 -27
-37 16 c-118 50 -289 100 -378 110 -27 3 -57 8 -65 11 -16 6 -355 14 -361 9z
m936 -202 c224 -130 394 -312 508 -540 31 -61 70 -163 83 -214 24 -98 30 -128
40 -196 l5 -41 -350 0 -351 0 -13 46 c-12 40 -14 -35 -14 -579 0 -400 3 -616
9 -600 10 28 28 107 34 160 3 19 7 37 10 39 3 3 163 6 356 6 l350 0 -7 -55
c-4 -30 -9 -63 -11 -75 -2 -11 -7 -36 -10 -55 -12 -69 -57 -227 -86 -300 -71
-179 -175 -337 -315 -477 -57 -57 -107 -103 -112 -103 -5 0 -16 -6 -23 -13
-42 -39 -185 -121 -190 -110 -3 4 -4 220 -4 480 1 260 -2 469 -5 465 -3 -4
-18 -36 -32 -71 -62 -144 -192 -292 -308 -348 -114 -55 -193 -73 -336 -77
-246 -8 -445 62 -606 213 -141 131 -252 358 -292 596 -3 17 -8 44 -11 60 -13
65 -13 391 1 485 76 524 341 835 755 886 345 42 658 -115 799 -400 l36 -74 0
469 c0 258 2 469 5 469 3 0 41 -21 85 -46z"/>
</g>
</svg>
